<?xml version="1.0" encoding="UTF-8"?>
<svg viewBox="0 0 350 264" xmlns="http://www.w3.org/2000/svg">
 <path d="m30.442 258.91c-0.30801-0.49837 0.59154-0.90612 1.999-0.90612 3.064 0 3.3116 0.56994 0.56001 1.2895-1.0994 0.28751-2.251 0.115-2.559-0.38337zm10.058-0.00375c-2.75-0.32869 2.0875-0.6241 10.75-0.65645 9.8218-0.03669 15.75 0.31574 15.75 0.93633 0 1.0305-17.043 0.85049-26.5-0.27988zm132.94-0.99462c-0.20909-0.33832 3.5212-0.89044 8.2896-1.227 7.9014-0.55761 10.329-0.36911 9.1841 0.71328-0.71878 0.67981-17.074 1.1606-17.474 0.51367zm30.557-0.82289c0-0.51193 7.317-0.96827 16.607-1.0357 9.134-0.06633 16.896-0.15781 17.25-0.20329s2.4428 0.04608 4.6428 0.20345c5.3513 0.3828-14.253 1.6743-27.75 1.8282-5.9247 0.06754-10.75-0.28823-10.75-0.7926zm-130.6-15.256c-0.22995-0.36885 2.9919-0.81885 7.1596-1 8.2446-0.35834 33.155 0.61856 27.442 1.0762-7.6414 0.61218-34.209 0.55367-34.602-0.0762zm51.352 0.36586c-2.6125-0.16764-4.7494-0.61764-4.7486-1s10.126-0.84667 22.5-1.0318c15.734-0.23538 22.499-0.00988 22.499 0.75 0 0.64011-2.1572 1.0996-5.25 1.1182-2.8875 0.01738-10.875 0.12988-17.75 0.25s-14.638 0.08125-17.25-0.08638zm80.042-3.3455c-1.2607-0.35768 5.0954-0.69518 14.125-0.75s16.206 0.11136 15.948 0.36931c-0.75501 0.75501-27.557 1.0943-30.072 0.38069zm32.208-0.69226c1.7815-1.1537 24.003-1.9939 24.001-0.90742-6.8e-4 0.4125-2.5887 0.7532-5.7512 0.75711s-8.9 0.2579-12.75 0.56443c-4.7057 0.37465-6.5084 0.23893-5.5-0.41412zm29.25-2.06c-1.7875-1.1374-3.25-2.5317-3.25-3.0984 0-2.1109 2.5161-8.999 3.2871-8.999 0.44009 0 1.9927-1.1058 3.4502-2.4573s8.9754-5.7952 16.706-9.8748c13.41-7.0767 14.47-7.4558 23.056-8.2518 10.701-0.99195 31.921-0.5866 35.234 0.67303 2.0781 0.7901 2.2075 1.1499 1.133 3.1514-0.66713 1.2427-1.292 3.5657-1.3886 5.1623-0.15108 2.4975-0.00686 2.672 1.033 1.25 1.4361-1.964 2.4966-2.1372 2.466-0.40282-0.02733 1.5509-15.124 11.279-28.533 18.387l-10.055 5.3296-19.945 0.59953c-19.002 0.57116-20.099 0.50167-23.195-1.4685zm9.75-1.0974c-3.575-0.36014-5.375-0.79171-4-0.95904 2.1296-0.25916 1.9814-0.40267-1-0.96845-4.3054-0.81705-5.0986-0.34896-2.5573 1.5092 1.2472 0.91199 4.1023 1.3566 7.9984 1.2456l6.0589-0.1726-6.5-0.6548zm25.75-0.25c-0.47189-1.4157-2.08-1.26-2.5833 0.25-0.18334 0.55 0.41666 1 1.3333 1s1.4792-0.5625 1.25-1.25zm7.25 0.14035c1.2661-0.91077 1.2271-0.99124-0.25-0.51607-0.9625 0.30962-1.75 0.12707-1.75-0.40566s0.6245-0.96862 1.3878-0.96862 3.5758-1.4878 6.25-3.3063c5.1671-3.5136 19.814-11.694 20.938-11.694 0.36825 0 0.10935 0.675-0.57534 1.5s-1.6637 1.5-2.1755 1.5-2.5862 1.125-4.6097 2.5c-5.4393 3.6961-2.9618 3.0336 4.0723-1.089 8.0021-4.6899 11.012-7.1078 9.7901-7.8633-0.54441-0.33646-0.73634-1.2723-0.42652-2.0797 0.67672-1.7635-0.78428-1.9344-2.434-0.28464-0.65084 0.65084-1.4768 0.88989-1.8354 0.53123s0.756-1.4537 2.477-2.4333c4.9845-2.8374 3.6336-3.3379-1.8582-0.68857-2.75 1.3266-5 2.9014-5 3.4994s-1.0125 1.9692-2.25 3.0471l-2.25 1.9598 3.3429-1.6232c1.8386-0.89276 3.5498-1.4163 3.8027-1.1634s-5.3014 3.5039-12.343 7.2244-13.815 7.4236-15.053 8.229-2.25 1.0341-2.25 0.50828 2.25-2.1807 5-3.6774c5.3261-2.8988 7.0539-4.71 2-2.0965-1.65 0.85325-3 1.1544-3 0.66916 0-1.3151-16.476-2.1523-24.5-1.2448-6.7573 0.76425-6.5926 0.79662 4.75 0.93368 6.5846 0.07956 11.75 0.55611 11.75 1.0841 0 0.55291-6.6286 0.91621-16.046 0.87944-8.8254-0.03445-16.325 0.21661-16.667 0.55792s6.9565 0.62055 16.217 0.62055c14.287 0 17.116-0.25155 18.673-1.6605 1.0092-0.91329 2.1659-1.3295 2.5704-0.92499s-0.05768 1.1794-1.0272 1.722-1.4895 1.4285-1.1556 1.9688 0.09343 1.6013-0.53442 2.3578c-0.88351 1.0646-0.73344 1.6129 0.66391 2.4258 2.2657 1.3181 2.4751 1.3181 4.3054 0.00148zm28.441-18.422c1.0676-0.80751 2.4176-1.4539 3-1.4364s0.18536 0.6925-0.88226 1.5-2.4176 1.4539-3 1.4364-0.18536-0.6925 0.88226-1.5zm-44.441 17.49c-3.025-0.41817-8.425-0.72714-12-0.6866l-6.5 0.0737 6.5 0.6548c3.575 0.36014 8.975 0.66911 12 0.6866l5.5 0.0318-5.5-0.7603zm31-7.1664c0-1.2431-0.83414-0.97319-5.5715 1.8031-6.4722 3.7929-6.4744 4.8965-0.00358 1.7229 3.0663-1.5038 5.575-3.0905 5.575-3.526zm-22.024 4.8974c-0.91436-0.82555-32.976-1.6449-32.976-0.8427 0 0.44499 7.5268 0.91337 16.726 1.0408s16.512 0.03831 16.25-0.19815zm-19.465-8.8988c6.4741-0.66824 12.94-0.705 18.301-0.10404 7.6733 0.86021 8.5274 0.76959 11.489-1.2189 1.7596-1.1815 9.0492-5.1828 16.199-8.8918s13.225-6.9843 13.5-7.2784c0.275-0.29413-8.725-0.21045-20 0.18596-24.162 0.84949-28.74 2.2742-13.471 4.1919 5.3753 0.67506 10.238 1.6919 10.805 2.2596 1.795 1.795 0.22477 2.0238-3.8728 0.56434-2.179-0.77608-7.3367-1.4286-11.462-1.45-6.6067-0.03429-7.8573 0.26342-10.5 2.4994l-3 2.5383 4.4417-0.66359c2.4429-0.36498 5.0626-1.2845 5.8214-2.0433s1.9101-1.3654 2.5583-1.3479 0.27857 0.74592-0.82143 1.6187c-1.9278 1.5296-1.8977 1.5631 0.83379 0.92812 1.6371-0.38061 2.5941-0.27102 2.2662 0.25951-1.0834 1.7529 5.4398 2.1926 8.5636 0.57724 4.3407-2.2446 4.6009-1.064 0.32194 1.4606-3.9418 2.3257-6.0347 2.6625-6.9855 1.124-0.33992-0.55-4.6415-1-9.559-1-10.242 0-11.476-1.2071-4.9708-4.8631 2.1836-1.2272 4.2847-2.7402 4.6691-3.3622s-2.6397 0.68629-6.7202 2.9072l-13.419 7.3069c-6.4468 3.5122-10.752 6.9346-7 5.5649 1.1-0.40159 6.505-1.1952 12.011-1.7635zm36.982 0.22116c0.35034-0.56686-0.05106-0.7345-0.94098-0.39301-1.7324 0.66479-2.0494 1.3816-0.61096 1.3816 0.51754 0 1.2159-0.44485 1.5519-0.98855zm7-4c0.3629-0.58718-0.08575-0.72119-1.105-0.33006-1.1564 0.44376-1.4825 0.28072-1-0.5 0.47568-0.76966 0.16697-0.9478-0.9198-0.53077-1.3092 0.50238-1.3695 0.79653-0.30194 1.4732 1.7583 1.1146 2.5857 1.0866 3.3268-0.1124zm-225.35 13.919-2.3549-0.94319 0.55684-24.743c0.30626-13.609 0.87177-31.606 1.2567-39.993l0.69985-15.25-10.402-0.06465c-5.721-0.03556-13.327-0.23477-16.902-0.4427-20.695-1.2036-26.73-1.6558-28.75-2.1543-1.9901-0.49103-2.2563-0.16725-2.3045 2.8032-0.13807 8.5101-0.89077 26.064-1.4089 32.858-0.31459 4.125-0.65978 14.588-0.76708 23.25-0.21517 17.371-0.33572 17.663-6.7162 16.262l-2.9018-0.63734 0.27868-36.797c0.15327-20.238 0.59573-37.31 0.98324-37.937 0.48753-0.78884-0.68163-1.14-3.7954-1.14-2.475 0-4.793-0.47401-5.151-1.0534-0.92728-1.5004 0.54138-12.947 1.6612-12.947 0.51449 0 0.75598 2.6274 0.5392 5.8665l-0.39262 5.8665 7.6126 0.60685c25.9 2.0647 34.376 2.6049 49.613 3.162 9.35 0.3419 20.565 1.041 24.923 1.5535s8.0354 0.81947 8.1728 0.68213 0.55981-2.9906 0.93881-6.3405l0.6891-6.0908-7.8618-0.64883c-9.8834-0.81566-38.532-2.529-52.362-3.1316-5.775-0.25163-15.675-0.92551-22-1.4975-6.325-0.57201-13.75-1.1499-16.5-1.2841-4.4034-0.21496-5.0397-0.5247-5.3329-2.5958-0.65962-4.6601 0.64997-6.7207 5.8058-9.1356 2.7649-1.295 5.027-2.7276 5.027-3.1836s1.5225-0.82906 3.3834-0.82906c2.3317 0 3.566-0.54394 3.971-1.75 0.32318-0.9625 1.1322-2.492 1.7978-3.399 1.5928-2.1703-1.3-6.851-4.2342-6.851-1.1198 0-1.7578-0.45-1.4179-1s1.4976-1 2.5726-1 2.736-0.42055 3.691-0.93456 4.5498-1.7244 7.9883-2.6898c3.5572-0.99871 5.7462-2.0678 5.0786-2.4804-1.2355-0.76357 4.4365-3.5418 8.8734-4.3464 4.7323-0.85813 11.5-6.8872 17.494-15.585 1.2345-1.7914 1.7118-2.0241 1.75-0.85291 0.12184 3.741-7.6709 12.796-14.987 17.414l-4.1704 2.6326 8.8549 4.5271c4.8702 2.4899 9.7549 5.315 10.855 6.2781s3.35 2.4252 5 3.2491c8.2646 4.127 19.18 10.182 20.605 11.431 0.88296 0.77328 2.2789 1.1475 3.1021 0.83163 0.92115-0.35347 2.1393 0.40635 3.1677 1.9759 2.0616 3.1464 3.9313 3.2415 5.9038 0.30023 0.82993-1.2375 2.9466-3.825 4.7038-5.75 2.9783-3.2628 7.556-10.91 6.8371-11.421-0.17587-0.12507-5.0448-2.5103-10.82-5.3005s-12.846-6.6526-15.713-8.5831c-6.2557-4.2122-22.287-17.739-22.287-18.805 0-0.41574 1.0125-1.0727 2.25-1.46s6.975-2.7282 12.75-5.2021c17.396-7.4521 31.912-10.336 47.75-9.4854 5.6813 0.30502 9.25 0.12046 9.25-0.47838 0-1.7534 11.522-9.1075 23.128-14.762 8.1947-3.9924 13.607-5.9263 19.372-6.922 7.8103-1.349 8.4397-1.2532 9.7337 1.4818 0.4909 1.0375 11.669 8.9373 12.646 8.9373 1.0839 0 3.574-6.488 3.602-9.3849 0.01003-1.0367 0.69323-2.2032 1.5182-2.5923 5.0934-2.4021 5.5115-2.8608 5.8104-6.3741 0.1707-2.0068 0.69305-3.6487 1.1608-3.6487 0.82185 0 5.1061-7.9863 4.828-9-0.07544-0.275 0.42737-1.5548 1.1173-2.8441 3.2481-6.0691 20.16-8.3796 31.083-4.2465 7.2593 2.7468 16.6 10.208 17.314 13.83 1.8359 9.3093 1.2573 12.299-3.8144 19.707-4.8754 7.1213-5.0678 7.5535-3.3623 7.5535 1.8236 0 11.386 8.195 13.764 11.795 2.1496 3.2551 2.1552 3.3715 0.4495 9.5-0.94975 3.4125-3.7252 10.93-6.1676 16.705-10.222 24.169-16.112 44.35-18.241 62.5-0.58061 4.95-1.5928 12.825-2.2492 17.5-1.4896 10.608-1.4406 45.138 0.0714 50.325 1.5067 5.1682 0.73383 6.6754-3.423 6.6754-2.9455 0-3.637-0.47043-4.7768-3.25-0.73303-1.7875-1.6312-6.1397-1.996-9.6715s-0.83778-6.704-1.0512-7.0493-0.48594-6.5681-0.60567-13.828l-0.21769-13.201h-3.7114c-3.6572 0-3.7207 0.06776-4.3474 4.6396-0.34975 2.5518-0.63592 8.6856-0.63592 13.631v8.9913l3.5-0.56797c1.925-0.31238 3.5-0.14626 3.5 0.36916 0 0.54609-7.0937 0.93713-17 0.93713-9.35 0-17-0.39589-17-0.87976 0-0.48582 5.0375-0.641 11.25-0.34655 10.467 0.49613 11.153 0.41604 9.8516-1.1515-1.0478-1.2625-1.3557-4.6553-1.2287-13.538 0.13-9.0918-0.14195-11.973-1.1672-12.367-2.0199-0.77509-30.498-0.25831-31.325 0.56845-0.396 0.396-0.87654 5.5562-1.0679 11.467-0.42434 13.109-0.90587 15.617-2.855 14.869-1.1934-0.45794-1.4622 0.75127-1.4804 6.6591-0.02699 8.7646-1.9061 12.081-6.5454 11.553-2.5826-0.29418-2.9688-0.7724-3.2383-4.0096l-0.30593-3.6756-3.412 1.4256c-1.8766 0.78408-6.3514 1.4256-9.9441 1.4256-3.9308 0-6.5321 0.42174-6.5321 1.059 0 0.61202-0.52761 0.71754-1.25 0.25-0.6875-0.44496-2.7736-1.259-4.6358-1.809-3.4798-1.0278-4.2829-2.5256-1.9414-3.6207 0.72997-0.34138 3.4737-1.5774 6.0972-2.7467 6.677-2.976 7.4817-5.2094 5.2664-14.616-0.97351-4.1339-2.1063-7.5161-2.5173-7.5161s-1.5206 2.025-2.4658 4.5-2.1222 4.5-2.6155 4.5-1.8153 1.8-2.9376 4-2.3851 4-2.806 4-0.83241 0.7875-0.91432 1.75c-0.23373 2.7464-1.8852 9.8027-2.5435 10.868-0.90052 1.4571-7.7356 1.6273-9.4139 0.23452-0.87957-0.72999-1.7466-0.84627-2.1484-0.28817-0.37058 0.51464-1.3488 1.0898-2.1738 1.2782-2.8183 0.64357-21.769 0.41844-22.886-0.27188-2.3379-1.4449-0.98904-3.5273 2.9763-4.5951 2.2498-0.60582 5.9623-2.799 8.25-4.8738s4.9469-4.0573 5.9094-4.4057 1.75-1.5101 1.75-2.5818 0.9-4.0481 2-6.6143 1.9995-4.741 1.999-4.8329-4.3517-0.28077-9.6693-0.4197c-13.173-0.3442-13.181-1.2474-0.01075-1.2474h10.652l3.2572-6.25c1.7915-3.4375 3.3996-6.555 3.5737-6.9279s-0.94771-0.86789-2.4928-1.1002l-2.8093-0.42232 3.0835-0.14983c3.0143-0.14647 3.1937-0.44663 8-13.386 2.7041-7.2797 5.0486-13.526 5.2101-13.881 0.80591-1.7704-5.0649-1.6962-9.2961 0.11755-2.5648 1.0994-6.0042 1.9989-7.6432 1.9989-2.2392 0-2.9357 0.43501-2.8019 1.75 0.0979 0.9625 0.12619 6.6356 0.06285 12.607-0.09768 9.2101-0.34269 10.77-1.6152 10.281-0.825-0.31658-1.5-0.13972-1.5 0.39301s0.7875 0.98293 1.75 1.0004c1.6596 0.03016 1.6604 0.09988 0.01401 1.35-0.9548 0.72501-3.0923 1.2394-4.75 1.1432s-5.264-0.25375-8.014-0.35c-2.9018-0.10156-5-0.64229-5-1.2885 0-0.75307 1.4568-0.89509 4.5-0.43873l4.5 0.67482v-14.096c0-15.507 0.2648-15.055-5.9448-10.153-1.886 1.4887-3.0033 1.7173-4.8887 1.0005-1.3442-0.51105-2.5524-0.8041-2.6851-0.65121s-0.51741 10.853-0.85507 23.778-0.75787 24.85-0.93378 26.5-0.40373 6.9054-0.50624 11.679c-0.13278 6.1824-0.61783 9.11-1.6864 10.179-0.825 0.825-1.4931 2.3196-1.4847 3.3214 0.01271 1.512 0.17335 1.5716 0.94563 0.35039 0.51167-0.80907 1.2923-1.1062 1.7347-0.66036s-0.54563 1.8931-2.1956 3.2161c-3.3533 2.6887-3.1228 2.6399-6.3549 1.3454zm4.3743-4.18c0.01069-1.7875 0.35942-9.55 0.77494-17.25 3.0795-57.066 3.0419-58.746-1.3177-58.934l-2.4767-0.10645-0.31165 16.02c-0.17141 8.811-0.49364 17.82-0.71606 20.02s-0.45226 12.503-0.51075 22.896c-0.08257 14.671 0.18937 19.084 1.216 19.735 2.4247 1.5374 3.3222 0.89789 3.3419-2.3809zm-68.643-25.5c0.05831-10.862 0.38465-25.375 0.72519-32.25 1.1267-22.747 1.1679-22.002-1.2151-22.001-1.9752 8.7e-4 -2.1525 0.67203-2.7082 10.251-0.79443 13.694-0.91613 61.556-0.15963 62.78 0.32965 0.53338 1.1961 0.96978 1.9255 0.96978 1.0532 0 1.348-4.065 1.4322-19.75zm1.7796 15.481c-0.27392-0.67703-0.48137 0.11903-0.46099 1.769s0.2445 2.2039 0.49804 1.231 0.23687-2.323-0.03705-3zm219.84 3.019c-2.0723-5.8911-3.0091-33.49-1.5699-46.25 0.62036-5.5 1.3294-12.025 1.5757-14.5 1.25-12.562 1.8295-16.326 4.0029-26 2.6579-11.83 9.5405-33.211 12.658-39.322 4.5578-8.9339 10.908-28.069 10.098-30.428-0.74895-2.1816-2.6996-1.3441-4.6729 2.0063-5.4018 9.1713-11.65 21.967-13.546 27.744-3.6868 11.229-8.2622 29.374-8.1953 32.5 0.0868 4.0511-2.0021 9.6549-3.3993 9.1188-0.62166-0.23856-1.5629-0.13787-2.0917 0.22374-0.90286 0.61743-3.636 6.0581-4.5074 8.9727-0.29152 0.97499-0.99503 0.79335-2.7193-0.70211-1.2793-1.1096-4.4195-2.7061-6.9782-3.5479-5.8955-1.9396-25.619-5.2553-36.524-6.1402l-8.3554-0.67795-1.6363 3.2801c-0.89998 1.804-1.6363 3.4002-1.6363 3.547s1.4625 0.5558 3.25 0.90889c4.6714 0.92276 8.75 2.6186 8.75 3.6382 0 0.48327-0.5625 0.91212-1.25 0.95299s-2.2625 0.26305-3.5 0.49373-2.25-0.08164-2.25-0.69676c0-0.79361-0.40933-0.77645-1.4164 0.05938-1.1252 0.93379-1.503 0.80473-1.8372-0.62756-0.2314-0.9917-0.60649 1.5007-0.83355 5.5387l-0.41282 7.3418 18.5-0.39271c15.047-0.3194 19.301-0.7332 22.791-2.2169 2.3603-1.0033 4.5674-1.5484 4.9045-1.2112s-1.4316 1.5175-3.9305 2.6229c-5.0052 2.214-12.28 2.9372-30.015 2.9836-20.177 0.05282-12.848 1.6777 11 2.439s27.8 1.011 31.776 2.0089c1.9564 0.49103 2.5313 0.16918 2.9538-1.6537 1.085-4.6811 2.4149-19.885 1.884-21.541-0.44093-1.3749-0.34985-1.4376 0.45103-0.31067s1.1109 0.9311 1.542-1c0.29613-1.3267 0.31671 0.51289 0.04573 4.0879-1.1988 15.816-1.5282 19.603-1.842 21.175-0.21759 1.0906 0.14973 1.4895 1.0526 1.143 0.76275-0.29269 1.3868-0.03402 1.3868 0.57482s-0.675 1.107-1.5 1.107c-1.2379 0-1.4943 1.791-1.4672 10.25 0.04259 13.318 1.6125 39.754 2.4941 42 0.78517 1.9998 5.6711 2.4913 4.9706 0.5zm-20.146-69c0.2851-0.6875 1.0688-2.9375 1.7416-5 1.118-3.4273 2.9067-5.132 2.9067-2.7702 0 2.0167-3.2547 9.0202-4.1919 9.0202-0.53612 0-0.7415-0.5625-0.4564-1.25zm-47.638 46.767c0.3969-20.666 0.33761-21.517-1.4992-21.517-1.7083 0-1.9813 1.0406-2.5581 9.75-0.35511 5.3625-0.64798 15.004-0.65083 21.427-0.00456 10.308 0.19993 11.722 1.7448 12.066 0.9625 0.21409 1.93 0.25458 2.15 0.08998s0.58597-9.9818 0.81326-21.816zm-152.11 12.754c-0.33229-0.33229-0.56864 0.25834-0.52522 1.3125 0.04798 1.165 0.28494 1.4019 0.60417 0.60417 0.28887-0.72188 0.25334-1.5844-0.07895-1.9167zm112.15-0.97843c0.83364-1.795 0.91694-3.0253 0.25-3.6922-1.5087-1.5087-1.2118-2.5861 0.93235-3.3824 2.8708-1.0663 6.1846-6.1803 13.939-21.512l6.9769-13.794-1.5368-4.5102c-1.5219-4.4666-1.066-7.2083 0.72723-4.3728 0.63002 0.99621 0.93526 1.0676 0.94563 0.22104 0.02834-2.3134 1.5673-1.2752 2.7485 1.8542 1.071 2.8375 1.0091 3.0617-0.72101 2.6092-1.5686-0.41021-1.7111-0.20417-0.83215 1.2033 0.82839 1.3265 0.14442 3.6178-3.1242 10.466l-4.1848 8.7679 1.4843 6.5074c0.81639 3.579 2.29 7.3976 3.2747 8.4856 1.4403 1.5915 1.5299 2.1393 0.45821 2.8016-2.2996 1.4212-0.65653 3.3132 3.9624 4.5626 2.4471 0.66198 5.1658 1.5144 6.0416 1.8943 1.3998 0.60718 1.6682-1.0671 2.2204-13.851 0.34544-7.998 0.36825-15.219 0.05069-16.046s-1.7667-1.5115-3.2204-1.5199c-2.8637-0.01659-3.9414-0.58732-5.9429-3.1473-1.0723-1.3715-1.0433-2.2768 0.16534-5.1695 1.7473-4.182 4.1751-5.6625 9.3188-5.6832 2.8319-0.01137 3.429-0.26527 2.3157-0.98469-0.825-0.53316-3.75-0.98316-6.5-1-3.6009-0.02206-4.5803-0.30187-3.5-1 0.825-0.53316 3.1875-0.97627 5.25-0.98469l3.75-0.01531v-7.441c0-4.0925-0.40803-7.6932-0.90674-8.0014s-0.6854 0.45272-0.41486 1.691c0.48263 2.2091 0.45152 2.2044-1.656-0.24862-2.0867-2.4289-2.1299-2.436-1.5178-0.25 0.89854 3.2087-1.1232 2.7922-2.4274-0.5l-1.0893-2.75 0.58737 3 0.58737 3-2.3958-2.25c-3.0107-2.8274-4.7228-2.9637-2.1991-0.17502 1.867 2.0631 1.8608 2.0708-1.095 1.3508-1.6351-0.3983-3.8257-1.3077-4.8682-2.0209-3.6924-2.5263-10.828 0.3903-12.176 4.977-2.7357 9.305-9.6319 26.271-15.001 36.907-5.173 10.246-6.2547 13.165-5.4418 14.684 1.4022 2.62 1.2712 3.3397-0.48539 2.6657-2.2004-0.84438-1.8288 0.70437 0.75 3.1252 2.2186 2.0827 10.303 6.179 12.25 6.2066 0.55 0.00778 1.5626-1.1972 2.2502-2.6778zm-42.044-7.5424c-0.23835-1.2375-0.43337-0.225-0.43337 2.25s0.19502 3.4875 0.43337 2.25 0.23836-3.2625 0-4.5zm128.16-9.0943c0.01575-3.2918 0.3286-8.386 0.69522-11.32 0.56475-4.52 0.4198-5.3352-0.94863-5.3352-0.88837 0-1.6152 0.45-1.6152 1s0.46583 1 1.0352 1c0.66366 0 0.60321 0.80715-0.16841 2.2489-1.3538 2.5297-2.3887 16.949-1.4011 19.522 1.1475 2.9904 2.372-0.63536 2.403-7.1154zm-40.015-4.6557c0.04655-6.6-0.30359-12-0.7781-12-1.4722 0-2.506 18.116-1.0839 18.995 0.87201 0.53894 0.90515 0.95154 0.11562 1.4395-1.5745 0.97307-1.3727 3.566 0.2775 3.566 1.0974 0 1.4018-2.4867 1.4689-12zm-87.125-3.75c-0.21575-2.0625-0.39226-0.375-0.39226 3.75s0.17651 5.8125 0.39226 3.75 0.21574-5.4375 0-7.5zm-70.124 2.0208c-0.33229-0.33229-0.56864 0.25834-0.52522 1.3125 0.04798 1.165 0.28494 1.4019 0.60417 0.60417 0.28887-0.72188 0.25334-1.5844-0.07895-1.9167zm0.05177-7.5399c-0.27392-0.67703-0.48137 0.11903-0.46099 1.769s0.2445 2.2039 0.49804 1.231 0.23687-2.323-0.03705-3zm70.844 0.26903c-0.33992-0.55-0.81648-1-1.059-1s-0.44098 0.45-0.44098 1 0.47656 1 1.059 1 0.7809-0.45 0.44098-1zm-70.794-8.25c-0.23835-1.2375-0.43337-0.225-0.43337 2.25s0.19502 3.4875 0.43337 2.25 0.23835-3.2625 0-4.5zm91.302 3.5c0.00435-0.9625 0.09038-8.05 0.19117-15.75 0.10661-8.1441-0.21041-14.051-0.75791-14.123-3.3187-0.43259-3.5845 0.83113-3.2622 15.507 0.17991 8.1911 0.76059 14.939 1.321 15.35 1.6429 1.207 2.4995 0.87067 2.5079-0.98469zm-20.352-4.519c-0.27393-0.67703-0.48137 0.11903-0.46099 1.769s0.2445 2.2039 0.49804 1.231 0.23687-2.323-0.03705-3zm138.34 0.9476c2e-4 -4.3943-2.1164-5.6402-11.2-6.5929-10.095-1.0587-55.633-0.83932-57.988 0.27939-2.1179 1.0058-3.3614 6.267-1.8979 8.0303 0.86525 1.0426 8.3082 1.2919 36.088 1.209l34.998-0.10441 1.3e-4 -2.8214zm-115.4-3.4077c-0.3323-0.33229-0.56864 0.25834-0.52522 1.3125 0.04798 1.165 0.28494 1.4019 0.60416 0.60417 0.28887-0.72188 0.25335-1.5844-0.07894-1.9167zm-22.888-7.0208c-0.22912-1.5125-0.41659-0.275-0.41659 2.75s0.18747 4.2625 0.41659 2.75 0.22913-3.9875 0-5.5zm-70.029 0.98834c-0.25029-0.95609-0.446 0.06166-0.4349 2.2617s0.21589 2.9822 0.45508 1.7383 0.23011-3.0439-0.02018-4zm100.31-16.954c3.025-1.2226 6.2247-2.2368 7.1105-2.2537 1.3109-0.025 1.59-1.1467 1.5-6.0285-0.0608-3.2988-0.20148-5.9988-0.31263-6s-3.1486 2.0576-6.75 4.5751c-5.8969 4.1222-6.5479 4.9176-6.5479 8 0 1.8825-0.45 3.4227-1 3.4227s-1-1.125-1-2.5-0.47656-2.5-1.059-2.5-0.74256 0.51204-0.35577 1.1379 0.69599 6.3633 0.68713 12.75l-0.01611 11.612 1.1219-9.9963 1.1219-9.9963 5.5-2.223zm-100.4 11.986c-0.33229-0.33229-0.56864 0.25834-0.52522 1.3125 0.04798 1.165 0.28494 1.4019 0.60417 0.60417 0.28887-0.72188 0.25334-1.5844-0.07895-1.9167zm149.4-3.7708c0-3.025-0.4187-5.5-0.93045-5.5-1.15 0-1.687 3.4384-1.2101 7.75 0.58829 5.3198 2.1406 3.6882 2.1406-2.25zm-64-7.9957c9.0859-6.8436 21.958-15.504 23.044-15.504 0.55946 0 2.3812-1.5535 4.0482-3.4522s3.9033-3.729 4.9694-4.0674 1.9384-1.2905 1.9384-2.1159c0-1.204-0.57415-1.0919-2.9044 0.56739-1.5974 1.1374-3.2092 2.0681-3.5817 2.0681s-2.5531 1.5072-4.8456 3.3494-7.8773 5.6074-12.411 8.3671c-7.681 4.676-8.5322 4.9646-12.5 4.2374-2.3417-0.42919-4.3162-0.7069-4.3878-0.61713s-0.32336 2.9493-0.55957 6.3545c-0.29045 4.1874-0.08651 5.9913 0.6301 5.5735 0.58277-0.33983 3.5346-2.4821 6.5596-4.7605zm64-2.5633c0-1.6175-0.45-2.941-1-2.941s-1 1.6016-1 3.559c0 2.118 0.40488 3.3088 1 2.941 0.55-0.33992 1-1.9415 1-3.559zm-30.661-6.6214c0.46156-0.45075 0.57203 0.98045 0.2455 3.1804l-0.5937 4 1.3705-3.5c1.0852-2.7714 1.8555-3.4432 3.7003-3.2271l2.3299 0.27291-2.1083-2.2729c-1.1595-1.2501-2.7237-4.4075-3.4758-7.0164l-1.3676-4.7435-3.72 3.0663c-3.6243 2.9875-5.3352 8.25-2.4938 7.6707 0.67444-0.1375 1.4181 0.875 1.6527 2.25l0.4264 2.5 0.83218-2.5c0.56214-1.6888 0.70061-0.55301 0.42673 3.5l-0.40545 6 1.1706-4.1804c0.64384-2.2992 1.5482-4.5492 2.0098-5zm-6.308 0.43045c-0.73853-1.8374-0.90439-1.4248-0.90439 2.25s0.16586 4.0874 0.90439 2.25c0.53919-1.3414 0.53919-3.1586 0-4.5zm23.518 4.0194c5.748-0.03554 10.437-0.33569 10.419-0.66701s-0.58774-1.3326-1.2672-2.2252c-2.0615-2.7079-9.3871-2.7904-16.598-0.18691-3.5182 1.2703-6.5557 2.3097-6.75 2.3097s-0.3532 0.48032-0.3532 1.0674c0 0.62085 0.85726 0.7953 2.0492 0.41701 1.127-0.35771 6.752-0.67946 12.5-0.715zm72.222-5.0497c-3.8564-1.4266-7.9711-1.8166-23.271-2.2062-11.293-0.28753-13.353-0.17352-8.3361 0.46134 10.259 1.2982 20.87 3.686 25.836 5.8138l4.5 1.9282 1.7255-2.5954c1.6713-2.514 1.6571-2.6207-0.45416-3.4017zm-57.771 1.3393c0-1.3504-1.8229-2.2865-3.0163-1.5489-0.55897 0.34546-0.75742 1.047-0.44098 1.559 0.75067 1.2146 3.4573 1.2067 3.4573-0.01008zm-64-2.559c0-2.3668-0.29607-2.5-5.559-2.5-3.4514 0-5.3247-0.37914-4.941-1 0.89718-1.4517-1.2083-1.2279-2.6149 0.27796-1.3488 1.4439-12.99 1.2981-28.885-0.36167-19.227-2.0077-31.007-2.9812-46.568-3.8486-8.7626-0.48842-17.62-1.3311-19.682-1.8726-3.6562-0.95991-3.75-0.91644-3.75 1.7383v2.7228l16.25 1.2302 21.75 1.6467c3.025 0.22905 15.4 0.91293 27.5 1.5197s24.7 1.4592 28 1.8941 8.8125 0.84983 12.25 0.92194c6.035 0.12661 6.25 0.04511 6.25-2.3689zm12.891-4.4488c4.6151-3.0532 10.465-6.8394 13-8.4138 6.0559-3.7613 23.109-17.628 23.109-18.792 0-0.49977-0.66676-1.1645-1.4817-1.4772-1.1474-0.44031-1.242-1.0165-0.41898-2.5543 0.58449-1.0921 0.79034-2.2581 0.45743-2.591s-3.8569-0.05314-7.831 0.62169c-8.0092 1.36-24.264 5.9799-21.417 6.0869 3.3803 0.12701 0.80492 1.7213-5.0124 3.1028-3.1881 0.75715-6.9216 1.9563-8.2966 2.6647s-3.175 1.2575-4 1.2201c-0.825-0.03741 0.3-0.91949 2.5-1.9602 3.4744-1.6436 3.6058-1.8139 1-1.2967-5.9803 1.187-0.97779-1.4088 8.5-4.4107 14.702-4.6564 31.702-8.5544 33.219-7.6168 0.42964 0.26553 0.78116 0.26002 0.78116-0.01225s-1.8-1.5067-4-2.7432-4-2.8913-4-3.6775c0-1.0889-0.77402-1.2633-3.25-0.73223-6.9937 1.5002-14.95 0.22025-16.867-2.7134-0.33928-0.51914-0.07111-2.8143 0.59593-5.1003 1.109-3.8008 1.8463-4.4751 8.6169-7.8812 8.2666-4.1587 10.195-4.1643 16.196-0.04693 2.7421 1.8815 3.4342 2.8288 2.5 3.4215-0.87548 0.55542-0.48606 0.83436 1.2081 0.86535 2.1616 0.03953 2.2661 0.182 0.77253 1.0524-1.871 1.0903-7.7725 9.2175-7.7725 10.704 0 1.806 9.7127 6.1447 16.038 7.1641 3.5542 0.57283 7.9888 1.4837 9.8546 2.0241 3.772 1.0926 4.926 0.70358 5.9277-1.9978 0.37395-1.0085 3.9424-5.4288 7.9299-9.8229s7.25-8.2017 7.25-8.4614-1.2375-0.40589-2.75-0.32479c-3.7827 0.20282-4.473-1.7798-0.75-2.1543 1.65-0.16597 4.418-0.95347 6.1511-1.75s3.8225-1.4482 4.643-1.4482 1.765-0.7118 2.0989-1.5818c0.842-2.1942 0.88152-2.1325-1.7953-2.8043-3.4311-0.86116-10.961-10.117-10.297-12.658 0.8456-3.2336-2.014-7.5635-7.1878-10.884-2.6533-1.7026-5.5594-3.9082-6.4582-4.9012-3.712-4.1018-23.674 2.4385-40.655 13.32-10.008 6.4133-10.116 6.7328-3.6736 10.854 5.0126 3.2065 7.687 5.6542 6.1778 5.6542-0.33764 0-3.1767-1.7317-6.309-3.8482-3.3772-2.282-7.373-4.0678-9.8177-4.3878-4.3136-0.56452-7.5199 0.41184-5.4842 1.67 1.9297 1.1926 1.1973 2.566-1.3685 2.566-2.2271 0-2.38-0.25067-1.5248-2.5 0.93083-2.4483 0.85274-2.4999-3.7748-2.4968-11.382 0.0077-27.822 4.24-42.615 10.971-3.3608 1.5292-7.3431 3.1731-8.8495 3.6532l-2.739 0.8728 5.5978 4.5c14.716 11.83 17.982 14.035 28.548 19.277 15.829 7.8529 15.308 7.3668 12.918 12.055-1.7343 3.4017-1.7645 3.7541-0.2693 3.1452 3.8695-1.5759 7.1838-2.2852 7.1838-1.5376 0 0.44013-2.0615 1.3774-4.581 2.0828-2.8582 0.80024-5.8468 2.6242-7.9466 4.85-1.8511 1.962-3.2294 3.7036-3.0629 3.87 0.40886 0.40886 17.393-5.6045 20.841-7.3788 1.6922-0.87084 2.75-1.0108 2.75-0.36389s1.0522 0.51325 2.75-0.35501c5.3208-2.7211 26.202-10.645 27.966-10.612 1.5656 0.02919 1.5138 0.25919-0.42306 1.8759-1.2141 1.0134-1.9266 2.1234-1.5833 2.4667s0.03976 0.62414-0.67449 0.62414-2.8541 0.96132-4.7552 2.1363c-2.6414 1.6324-3.1409 2.3554-2.118 3.0655 0.93011 0.6457 0.67767 0.74427-0.82731 0.32305-1.1912-0.3334-2.4748-0.10634-2.8523 0.50457s-1.4398 1.4167-2.3606 1.7907-7.1707 4.0549-13.889 8.1799c-9.9096 6.0847-12.216 7.9357-12.224 9.809-0.00614 1.586 0.38247 2.0717 1.2411 1.5512 0.6875-0.41681 5.026-3.2559 9.641-6.309zm-18.776-10.829c2.6415-1.9687 9.779-4.6617 10.485-3.9559 0.41336 0.41335-11.001 5.7334-12.301 5.7334-0.31292 0 0.50424-0.79987 1.8159-1.7775zm23.985-9.0512c6.9485-2.4067 10.451-4.102 10.167-4.9214-0.24864-0.71751 0.34783-1.2164 1.4002-1.171 1.0083 0.04342 1.2961 0.29749 0.63951 0.56461s-0.98396 1.0326-0.72745 1.701c0.45641 1.1894-17.411 7.7515-20.63 7.5768-0.79677-0.04325 3.3212-1.7308 9.1512-3.75zm-10.1-0.20296c0-0.91532 1.4748-1.4151 7.5-2.5417 2.2-0.41134 4.45-0.85387 5-0.9834s2.35-0.50964 4-0.8447l3-0.6092-3 1.3854c-4.1635 1.9227-16.5 4.6095-16.5 3.5936zm24-6.1416c0-0.45475 0.3375-0.86025 0.75-0.90112s1.7625-0.26305 3-0.49373 2.25-0.02331 2.25 0.46082-1.35 1.0784-3 1.3205-3 0.06824-3-0.3865zm-6.5-2.2698c5.9373-1.8484 11.09-2.7331 9.9688-1.7117-1.1702 1.0663-9.6376 3.1939-12.162 3.0558-0.99395-0.05438-0.00718-0.65925 2.1928-1.3442zm11.865-2.3385c0.26565-0.42982 1.9797-0.85639 3.809-0.94793 2.688-0.1345 2.9424 0.00192 1.326 0.71121-2.5393 1.1143-5.7694 1.2632-5.135 0.23671zm37.108-17.843c-2.7128-3.5566-2.8677-3.6142-8.2321-3.0606-6.0687 0.62634-15.24-0.18004-15.24-1.3399 0-0.4107 4.6125-0.57369 10.25-0.3622s10.925 0.39209 11.75 0.40134c2.507 0.02809 3.9916 1.47 4.9485 4.8065 1.2008 4.1871-0.06649 4.0248-3.4759-0.44513zm5.2774-1.4553c-1.9334-1.1261-2.4385-4.3161-0.58558-3.6984 1.4758 0.49195 4.3786 4.789 3.2076 4.7481-0.47958-0.01672-1.6595-0.48908-2.622-1.0497zm-103.52-1.1699c0.60971-1.9122 10.549-6.9512 16.742-8.4878 7.5164-1.8649 18.358-4.2622 19.276-4.2622 0.4127 0 0.75037 0.38851 0.75037 0.86336s-2.8125 1.4148-6.25 2.0889-7.15 1.6346-8.25 2.1345c-2.0436 0.92874-5.6998 1.7061-8.6495 1.839-0.90723 0.04087-3.99 1.6493-6.8505 3.5743-5.4645 3.6774-7.4317 4.3313-6.7681 2.25zm-9.212-1.7128c-0.61746-1.1537-1.6624-1.7279-2.5352-1.393-0.81661 0.31336-1.4848 0.12781-1.4848-0.41233 0-1.2145 6.1229-4.274 7.2095-3.6024 0.43476 0.2687 0.79047-0.05777 0.79047-0.72547 0-0.75335 0.7589-0.52721 2 0.59597 2.3464 2.1235 2.6459 3.9618 0.512 3.143-0.81841-0.31405-1.4401-0.2497-1.3816 0.14301 0.32149 2.1569-0.34284 2.1806-2.0972 0.0748-1.594-1.9134-1.973-2.0403-2-0.6698-0.0183 0.93004 0.41673 1.9691 0.96673 2.309s1 1.0415 1 1.559c0 1.6567-1.8942 1.0073-2.9801-1.0218zm7.8864-5.7835c-0.72391-1.904-0.64336-2.8038 0.30489-3.4054 2.2442-1.4239 3.6874-0.91848 3.2888 1.1517-0.21184 1.1 0.039 2 0.55742 2 1.7901 0 0.93639 1.7684-1.1123 2.3041-1.5473 0.40464-2.2979-0.10181-3.0388-2.0504zm10.265-3.3511c-0.72041-1.1536-1.0292-2.378-0.68617-2.721s0.99294-0.02615 1.4443 0.70414c0.58383 0.94465 1.0209 1.0037 1.5147 0.20473 0.38175-0.61769 1.113-0.86418 1.625-0.54775s0.9309 0.09877 0.9309-0.48369 0.45-1.059 1-1.059c1.1072 0 1.3824 4.2843 0.34201 5.3247-0.3619 0.3619-1.2619 0.1568-2-0.45578-0.98712-0.81923-1.342-0.81694-1.342 0.00868 0 1.7886-1.4054 1.3042-2.8287-0.97493zm7.844-2.1526c0.01162-2.4662 0.24909-2.8883 0.98469-1.75 0.70439 1.09 0.97356 1.1422 0.98469 0.19098 0.00842-0.71996 0.46531-1.0309 1.0153-0.69098s1 1.518 1 2.618-0.45 1.7219-1 1.382-1-0.14148-1 0.44098-0.45 1.059-1 1.059-0.99311-1.4625-0.98469-3.25zm5 0c0.00842-0.6875 0.43969-1.9212 0.95836-2.7416 0.72341-1.1442 1.2173-1.2174 2.1204-0.31429s0.81302 1.5417-0.38693 2.7416c-1.8895 1.8895-2.7123 1.9855-2.6918 0.31429zm5-3c0.01137-1.67 0.24032-1.8948 0.8882-0.87188 0.48009 0.75796 1.3732 1.0689 1.9847 0.69098 0.63414-0.39192 1.1118-0.01733 1.1118 0.87189s-0.85524 1.559-2 1.559c-1.4119 0-1.9955-0.66156-1.9847-2.25zm41.109 69.743c2.4066-0.82884 5.2757-1.9217 6.3757-2.4286 3.0316-1.397 10.859-3.6942 22.479-6.5973 15.972-3.9904 22.973-7.6939 33.671-17.813 8.7615-8.2867 11.207-10.127 9.8404-7.4044-0.34513 0.6875 0.70414-0.2491 2.3317-2.0813s3.1935-2.9523 3.4798-2.489c0.77912 1.2606-1.4077 3.8052-5.3197 6.19-1.9153 1.1676-3.02 2.1245-2.4548 2.1266 1.3361 0.00486 5.6275-2.8629 7.2122-4.8196 0.68181-0.84188 1.5416-1.2288 1.9105-0.85983 0.98212 0.98212-2.1635 4.114-6.3163 6.2888-2.7688 1.4499-3.7235 1.5935-4.0698 0.61202-0.28116-0.79701-3.1026 1.2178-7.4548 5.3234-3.8514 3.6332-8.3372 7.4175-9.9685 8.4095l-2.966 1.8038 12.313 0.51939c8.3649 0.35287 14.313 1.1634 18.552 2.5279l6.2394 2.0085 1.5129-5.0946c1.1034-3.7157 1.207-5.2838 0.38245-5.7933-0.62177-0.38428-0.81674-1.2063-0.43328-1.8268s1.1856-0.82624 1.7826-0.45729c0.62381 0.38554 0.79968 0.2085 0.41353-0.4163-0.36953-0.59792 0.24955-5.2238 1.3757-10.28 1.3939-6.258 1.8747-11.044 1.5059-14.991-0.58817-6.2962-2.2976-16.063-2.9204-16.686-0.21315-0.21315-4.1475 1.5828-8.7429 3.9909s-10.164 5.0906-12.375 5.9611-6.2609 3.464-9 5.7634-5.6756 4.482-6.5257 4.8502c-3.782 1.6381-22.223 14.716-22.724 16.115-0.93528 2.6135-4.3081 7.0541-5.3578 7.0541-0.54501 0-0.669-0.52089-0.27554-1.1575 0.49016-0.79309 0.03647-0.97999-1.441-0.59362-1.186 0.31014-2.1564 0.15603-2.1564-0.34248s0.40186-0.90638 0.89301-0.90638 1.1344-0.62913 1.4295-1.3981c0.38672-1.0078-1.1886-0.70762-5.643 1.0752-3.3987 1.3603-10.407 3.7644-15.574 5.3426s-9.833 3.3078-10.369 3.8438c-1.4558 1.4558-1.0697 8.1299 0.71662 12.387 1.7944 4.2758 1.7805 4.2717 7.6711 2.243zm72.876-36.434c0-0.58246 0.45-1.059 1-1.059s1 0.19844 1 0.44098-0.45 0.7191-1 1.059-1 0.14148-1-0.44098zm-64 36.941c-1.9584-1.2656-3.2822-1.2656-2.5 0 0.33992 0.55 1.379 0.99311 2.309 0.98469 1.4573-0.0132 1.4837-0.14929 0.19098-0.98469zm19.5-0.9339c16.911-1.4733 32.581-1.3134 42.5 0.4339 8.2445 1.4523 13.798 1.8658 11.25 0.83772-2.1926-0.88475-1.4887-3.5482 0.75-2.8377 1.4088 0.44713 2 0.1797 2-0.90468 0-1.0101-1.9385-2.103-5.6374-3.1783-12.848-3.735-38.596-3.9781-52.363-0.49449-15.976 4.0426-16 4.0518-16 5.9848 0 1.4059 0.63764 1.7577 2.75 1.5172 1.5125-0.17217 8.15-0.7835 14.75-1.3585zm-65.637-4.6549c3.1004-1.9739 10.137-6.3116 15.637-9.6393s10.675-6.7111 11.5-7.5185c1.3251-1.2968 1.2084-1.3834-1-0.74238-1.375 0.39908-3.175 1.2942-4 1.989s-2.625 1.5869-4 1.9822-7.9 3.3357-14.5 6.5343-13.8 6.6125-16 7.5865l-4 1.771 4.5 0.66283c2.475 0.36456 4.8883 0.73042 5.3628 0.81303s3.3995-1.4648 6.5-3.4386zm-27.39 1.2108c-1.0849-0.75792-4.8975-2.9495-8.4725-4.8701s-8.4388-4.548-10.809-5.8387l-4.3086-2.3467-8.368 2.8411c-7.1681 2.4338-9.2747 2.745-14.691 2.1702-3.4779-0.369-8.5735-0.86369-11.323-1.0993s-7.025-0.67219-9.5-0.97018-6.1875-0.73867-8.25-0.9793-3.7517-0.1206-3.7538 0.26673-2.1011 1.5669-4.6645 2.6213c-4.3248 1.7789-4.494 1.9788-2.3482 2.7726 2.0412 0.75511 14.044 1.7714 40.516 3.4306 4.4 0.27578 13.4 1.0813 20 1.79s15.588 1.3564 19.973 1.4392c7.0364 0.13291 7.7409-0.01122 6-1.2275zm19.387-5.622c0.5621 0 1.2827-0.42186 1.6014-0.93747 0.75237-1.2174-3.2016-0.48685-7.8283 1.4463-1.9982 0.83489-3.6331 1.2085-3.6331 0.83026s-1.0459 0.29482-2.3242 1.4957-2.6283 1.8794-3 1.5076-0.67581-0.22581-0.67581 0.32419c0 2.2563 1.5093 2.0225 8.0116-1.2407 3.7545-1.8843 7.2863-3.4259 7.8484-3.4259zm-18.205 3.1713c-0.91025-1.0058-1.655-2.404-1.655-3.107 0-0.75475-0.64781-1.0297-1.5818-0.67126-0.86998 0.33385-1.8698 0.60699-2.2218 0.60699-0.6398 0 5.9432 4.8583 6.7086 4.951 0.22274 0.02697-0.33976-0.77389-1.25-1.7797zm141.53-2.8544c-0.72188-0.28887-1.5844-0.25335-1.9167 0.07894s0.25834 0.56864 1.3125 0.52522c1.165-0.04798 1.4019-0.28494 0.60417-0.60416zm-148.69-1.3169c-0.33992-0.55-1.154-0.99311-1.809-0.98469-0.71562 0.0092-0.59228 0.40223 0.30902 0.98469 1.9211 1.2415 2.2673 1.2415 1.5 0zm143-0.07382c-3.55-1.0672-27.262-2.4688-26.422-1.5618 0.31773 0.34341 5.2677 0.91224 11 1.2641s10.61 0.80437 10.839 1.0056 2.0292 0.32726 4 0.27999l3.5833-0.08596-3-0.90191zm-109.5-3.3677c0-0.20416-0.9-0.13585-2 0.15181s-2 0.93636-2 1.4416 0.89508 0.43952 2-0.15182 2-1.2374 2-1.4416zm-37.083 1.077c-0.22917-0.2005-1.5417-0.90032-2.9167-1.5552-2.3573-1.1226-2.3892-1.1018-0.55887 0.36454 1.593 1.2763 4.8479 2.3913 3.4755 1.1906zm-27.917-1.6354c1.1689-0.75538 0.89294-0.97275-1.25-0.98469-1.5125-0.00842-2.75-0.51777-2.75-1.1319 0-0.66089 1.0524-0.91539 2.5788-0.6236 3.0805 0.58888 4.1644-1.3333 2.6392-4.6807-0.95537-2.0968-1.7574-2.3105-9.358-2.4937-4.5722-0.1102-8.5486-0.57765-8.8365-1.0388s-4.3485-0.81352-9.0235-0.78308l-8.5 0.05535 11 1.3905c22.523 2.8471 24.077 3.1956 12.5 2.8029-9.2922-0.31522-9.7674-0.2556-4.1309 0.51823 3.503 0.48093 6.653 1.1712 7 1.5341 0.70606 0.73822-12.186-0.36068-18.369-1.5658l-4-0.77958 4-0.26667c3.9949-0.26633 3.9936-0.26742-1-0.85956-3.9613-0.46973-5.0721-0.28128-5.3471 0.9071-0.19089 0.825-0.75339 1.9275-1.25 2.45-1.6902 1.7783-0.90858 2.55 2.5827 2.55 1.9171 0 5.4046 0.44194 7.75 0.98209 3.5229 0.81133 14.38 2.3054 20.764 2.8576 0.825 0.07135 2.175-0.30649 3-0.83965zm-20.75-2.7871c-6.7375-0.85006-12.25-1.9207-12.25-2.3792 0-1.0782-0.05544-1.0816 10.5 0.65267 4.95 0.8133 10.912 1.4866 13.25 1.4962s4.25 0.46746 4.25 1.0175c0 1.1904-0.12708 1.184-15.75-0.78707zm15.75-2.2129c0-1.1872 1.7373-1.1872 4.5 0 1.676 0.72021 1.4735 0.87082-1.25 0.92971-1.7875 0.03866-3.25-0.37971-3.25-0.92971zm74 4c0.825-0.53316 1.05-0.96937 0.5-0.96937s-1.675 0.43621-2.5 0.96937-1.05 0.96937-0.5 0.96937 1.675-0.43621 2.5-0.96937zm57.609-12.486c0.06013-0.00764 0.4062-1.2514 0.76906-2.7639 0.57491-2.3965 0.3629-2.75-1.6492-2.75-5.6904 0-13.911 3.1229-19.051 7.2367-2.9294 2.3448-6.6429 5.239-8.2522 6.4316-2.263 1.6771 0.58574 1.0005 12.574-2.9861 8.525-2.8349 15.549-5.1607 15.609-5.1683zm-110.61 9.0118c0-0.26088-1.35-1.1724-3-2.0257-3.7609-1.9448-3.9884-1.1001-0.25 0.92803 3.1426 1.7049 3.25 1.7412 3.25 1.0976zm115.44-9.8462c2.6003-3.8317 3.6113-7.6514 1.1766-4.4451-0.72439 0.95395-1.5995 1.452-1.9447 1.1069-0.67003-0.67003-1.1141 0.38399-2.1724 5.1566-0.76466 3.4482-0.53877 3.3086 2.9405-1.8184zm-128.44 1.3205c-0.79314-0.49019-1.6671-0.66625-1.9421-0.39125s0.14894 0.90106 0.94208 1.3912 1.6671 0.66625 1.9421 0.39125-0.14894-0.90106-0.94208-1.3912zm66.5 0c1.3187-0.56668 1.4891-0.87815 0.5-0.9144-0.825-0.03024-2.175 0.38124-3 0.9144-1.828 1.1813-0.24909 1.1813 2.5 0zm-75.941-4.5318c-1.0676-0.80751-2.4176-1.4522-3-1.4328s0.06613 0.67854 1.4411 1.4646c3.2392 1.8517 4.0278 1.8356 1.5589-0.0318zm153.15-8.3797c5.3636-3.6929 6.4026-5.0885 3.7879-5.0885-1.705 0-2.0091-1.5673-0.48666-2.5082 0.55734-0.34445 2.3573-0.66449 4-0.7112s2.9867-0.39407 2.9867-0.77192 5.8637-3.2957 13.03-6.4841 12.883-5.9443 12.703-6.1242c-0.50623-0.50623-8.4208 2.0767-17.078 5.5733-4.3141 1.7425-8.4579 2.9326-9.2083 2.6447-2.4705-0.94801-14.745 9.6736-17.919 15.507l-2.917 5.3594 2.9443-1.9038c1.6194-1.0471 5.2897-3.5186 8.1564-5.4923zm-27.712 5.5165c0-0.21723-1.8-0.56662-4-0.77643s-4-0.03207-4 0.39496 1.8 0.77643 4 0.77643 4-0.17773 4-0.39496zm-134-3.164c0-0.24254-0.45-0.44098-1-0.44098s-1 0.47656-1 1.059 0.45 0.7809 1 0.44098 1-0.81648 1-1.059zm220.47-20.441c2.6421-4.675 5.6478-9.7026 6.6794-11.172l1.8755-2.6725-4.2629-3.3986c-2.3446-1.8692-5.5438-4.2927-7.1093-5.3854l-2.8464-1.9869-4.8007 2.2975-4.8007 2.2975 0.93288 3.7604c3.1267 12.604 4.9963 23.595 4.9768 29.26l-0.02233 6.5 2.2869-5.5c1.2578-3.025 4.4486-9.325 7.0908-14zm-114.11 10.927c1.4492-1.1399 2.6349-2.8049 2.6349-3.7 0-1.2327 0.28079-1.3466 1.1576-0.4698s0.87063 1.5034-0.02553 2.5832c-0.92684 1.1168-0.86829 1.5464 0.27031 1.9833 0.9087 0.3487 2.7643-1.0419 4.9509-3.7104l3.4974-4.2682-2.24-2.8092c-2.9156-3.6565-7.9812-3.7237-15.861-0.21034-4.528 2.019-5.75 3.0404-5.75 4.806 0 2.1751 0.09377 2.1543 3.1356-0.69497l3.1356-2.9371-0.71487 2.99c-0.82504 3.4508-2.0777 4.4733-5.5063 4.4947-1.8453 0.01153-2.1664 0.29893-1.3008 1.1645 0.96034 0.96034 2.9012 1.5273 9.366 2.7358 0.33833 0.06325 1.8008-0.81766 3.25-1.9576zm64.135 1.0726c0.35667-0.5771-0.5699-0.99352-2.191-0.98469-2.1811 0.01189-2.4737 0.232-1.309 0.98469 1.9213 1.2416 2.7326 1.2416 3.5 0zm-4.3389-7c1.8065-1.65 3.8593-3 4.5617-3s1.2771-0.4132 1.2771-0.91821 0.26455-1.7425 0.58788-2.75c0.41331-1.2878-0.16636-1.0152-1.952 0.91821-1.397 1.5125-2.9269 2.75-3.3998 2.75s-1.858 1.35-3.0779 3-2.0073 3-1.7498 3 1.9463-1.35 3.7528-3zm1.8389-6.115c0-1.3597-0.45445-1.0998-3.0757 1.7592l-2.4243 2.6442 2.75-1.7592c1.5125-0.96757 2.75-2.1575 2.75-2.6442zm12.078 1.5053c7.511-3.0521 16.866-5.9787 22.172-6.9362 2.0625-0.37218 3.7475-1.1891 3.7444-1.8154-0.01227-2.5059-2.1452-8.6387-3.0044-8.6387-3.4269 0-24.671 10.284-26.7 12.925-1.1804 1.5367-3.4588 7.0749-2.9106 7.0749 0.15157 0 3.1657-1.1744 6.698-2.6097zm1.2224-10.487c6.666-2.5509 12.308-7.0381 14.159-11.26 1.1165-2.5472 1.3935-2.7424 1.4596-1.0287 0.04486 1.1633-0.86153 3.3141-2.0142 4.7795l-2.0958 2.6644 3.8458-1.7416c6.136-2.7787 7.0203-3.686 4.2338-4.3438-1.3358-0.31534-2.5068-1.4183-2.6727-2.5174-0.27752-1.8388-0.21124-1.8512 1.105-0.20616 1.7122 2.1399 2.125 2.1619 4.0707 0.21618 1.1604-1.1603 1.2995-2.1502 0.57143-4.0651-1.2268-3.2266-1.2167-4.4011 0.03761-4.4011 0.55 0 1 0.75 1 1.6667s0.26609 1.4006 0.59131 1.0754c1.0415-1.0415-0.56682-4.4087-2.1058-4.4087-1.3618 0-1.9077 0.99275-1.6039 2.9167 0.16122 1.0211-0.65396 0.94219-2.9473-0.28518s-2.5678-4.7845-0.43426-5.6032c0.825-0.31658 1.5-1.457 1.5-2.5344s0.46921-2.8355 1.0427-3.907 0.75657-3.4045 0.40686-5.1843c-0.65254-3.321-3.0041-4.8852-13.822-9.1938-4.9976-1.9905-5.3447-1.9433-2.5211 0.34315 1.9961 1.6164 2.1371 2.1158 0.98834 3.5-1.7138 2.065-7.0951 2.1757-7.0951 0.146 0-0.9666 0.5982-1.2581 1.75-0.85282 1.2114 0.42625 1.4422 0.28842 0.75-0.44781-2.4341-2.5889-4.5999-1.7261-6.952 2.7692-1.295 2.475-2.7415 5.8361-3.2144 7.4691-0.51293 1.7709-2.0653 3.5869-3.8468 4.5-1.6427 0.84201-3.1529 1.622-3.3558 1.7333-0.65888 0.36132 2.6947 3.2976 3.7662 3.2976 0.57202 0 0.78102-0.675 0.46444-1.5-0.35805-0.93306 0.0063-1.5 0.96399-1.5 2.2394 0 2.88 3.1204 1.7113 8.3354-0.69728 3.1114-0.69804 5.4256-0.0024 7.2553 1.4494 3.8122 0.41806 4.1851-1.4711 0.53185-0.87125-1.6848-2.4498-3.5266-3.508-4.0929-2.4602-1.3167-7.0554-1.336-7.0554-0.02964 0 0.55 0.45 1 1 1 1.3197 0 1.2855 3.3145-0.04797 4.648-0.73063 0.73063 0.0604 2.381 2.6122 5.45 6.241 7.5058 9.4973 8.3411 18.736 4.8057zm-8.1376-26.578c-0.58809-1.0509-0.57017-2.7263 0.04814-4.5 1.2665-3.6331 4.9103-3.8165 7.1744-0.36097 2.2276 3.3997 2.1373 3.5352-2.3536 3.5352-3.1168 0-3.8451 0.32195-3.393 1.5 0.78094 2.0351-0.31172 1.9061-1.4759-0.17422zm5.8376-4.3258c0-1.2529-1.0612-1.2529-3 0-1.213 0.78387-1.0694 0.9723 0.75 0.98469 1.2375 0.00842 2.25-0.43469 2.25-0.98469zm-0.92235-3.9002c-2.4323-0.32989-4.5846-1.0942-4.7829-1.6984-0.49401-1.5054 3.3458-6.088 4.3025-5.1347 0.42318 0.42167 0.23692 1.2992-0.41392 1.95-1.9534 1.9534-1.373 2.6466 2.4894 2.973 2.02 0.1707 3.8575 0.87287 4.0833 1.5604s0.03564 1.1824-0.4227 1.0998-2.8234-0.42011-5.2557-0.75zm-8.6846 16.318c1.2706-3.3113 0.69577-5.2542-1.393-4.708-1.1182 0.29241-2 0.03068-2-0.59362 0-2.0318-1.6596-1.1592-2.8769 1.5126-0.65887 1.4461-1.0686 2.7076-0.91051 2.8035 0.92451 0.56049 5.3903 2.4428 5.9304 2.4996 0.35366 0.03722 0.91616-0.64412 1.25-1.5141zm-208.89 184.64c8.0468-1.143 52.216-1.3279 52.9-0.2214 0.38715 0.62642-9.875 0.96809-28.648 0.95384-16.088-0.01221-27.002-0.34181-24.252-0.73244zm181.59-3.486c0.83443-0.83443 26.01-1.2166 26.513-0.40253 0.28176 0.4559-5.6643 0.82891-13.213 0.82891s-13.534-0.19187-13.299-0.42638zm30.907-0.57353c0-0.55005 2.25-1.0001 5-1.0001s5 0.35214 5 0.78253-2.25 0.88043-5 1.0001c-2.812 0.12235-5-0.22009-5-0.78253zm-168-10.03c11.56-1.0924 33-1.1037 33-0.01743 0 0.57597-8.0076 0.90791-20.25 0.83943-14.947-0.08361-18.286-0.29888-12.75-0.822zm204-5.9701c0-1.1931 9.8331-1.2295 15.5-0.05737 3.2404 0.67025 2.1484 0.84921-5.75 0.94237-5.91 0.06971-9.75-0.27885-9.75-0.885zm6.7893-9.1514c-0.85021-0.53942-0.35273-0.82324 1.4607-0.83334 1.5125-0.00842 2.75 0.35969 2.75 0.81802 0 1.0679-2.5371 1.0771-4.2107 0.01532zm18.938 0.42962c1.7752-0.22091 4.9252-0.22454 7-0.00807s0.6223 0.39722-3.2277 0.40166-5.5475-0.17268-3.7723-0.39359zm-278.01-3.0142c2.8674-0.2013 7.8174-0.20315 11-0.0041s0.83651 0.36376-5.2135 0.36601-8.6539-0.1606-5.7865-0.36191zm38.787-1.3866c3.4544-1.0947 37.494-0.75646 37.498 0.37257 0.0013 0.4125-9.1101 0.71132-20.248 0.66405-14.346-0.06089-19.375-0.36314-17.25-1.0366zm163-12.964c-1.836-0.41405 0.49196-0.69181 6-0.71591 9.4988-0.04155 10.353 0.39335 2 1.0183-2.75 0.20576-6.35 0.06967-8-0.30243zm-160.5-9.1632c-0.00355-0.94961 33.635-0.79803 36.997 0.16671 1.375 0.39454-6.3862 0.68719-17.247 0.65032s-19.748-0.40453-19.75-0.81703zm56.297-53.093c-0.43983-0.73842-2.128-2.1997-3.7516-3.2473-2.6991-1.7416-2.8945-1.7551-2.2814-0.15742 0.36878 0.96101 0.49144 1.7473 0.2726 1.7473-1.0538 0-12.636-8.2368-12.198-8.6748 0.27664-0.27664 2.2174 0.66202 4.3129 2.0859s4.481 2.5889 5.3012 2.5889c1.234 0-10.788-9.0438-15.947-11.996-0.82042-0.46954-1.1866-1.1588-0.81372-1.5317 0.56385-0.56384 7.1353 3.8099 25.555 17.009 2.306 1.6524 2.9954 3.5189 1.2997 3.5189-0.52267 0-1.3102-0.60416-1.75-1.3426zm0.20031-5.1884c-1.65-1.3525-2.4626-2.4613-1.8058-2.464s2.4568 1.1058 4 2.4634c3.6492 3.2104 1.7223 3.2109-2.1942 6e-4zm5-2.469c-0.99549-1.1-1.36-2-0.80998-2s1.8145 0.9 2.81 2 1.36 2 0.80998 2-1.8145-0.9-2.81-2zm-13.897-4.4998c-1.0435-0.78989-2.2499-1.2182-2.6809-0.95189s-1.0662 0.02694-1.4117-0.53203c-1.0923-1.7673 2.8837-1.0549 5.4899 0.98369 1.375 1.0755 2.05 1.9512 1.5 1.946s-1.8538-0.65584-2.8973-1.4457zm8.3973-2.3e-4c-0.69443-0.83674-0.80272-1.5-0.24489-1.5 0.55 0 1.5602 0.675 2.2449 1.5 0.69443 0.83674 0.80272 1.5 0.24489 1.5-0.55 0-1.5602-0.675-2.2449-1.5zm5.4218-0.58641c-1.0385-1.1475-4.7157-3.915-8.1716-6.15s-6.1072-4.2399-5.8917-4.4554c1.0246-1.0246 17.642 10.414 17.642 12.144 0 1.2048-1.7935 0.43363-3.5782-1.5384zm0.32873-4.6804c-2.0622-1.4122-3.5665-2.7506-3.3429-2.9742 0.6175-0.6175 6.0639 2.3992 7.5377 4.175 1.8747 2.2588 0.12657 1.7584-4.1948-1.2008zm-23.251-0.23323c-0.33992-0.55 0.05697-1 0.88197-1s1.7781 0.45 2.118 1-0.05697 1-0.88197 1-1.7781-0.45-2.118-1zm2.2385-3.7193c-3.7188-2.525-6.5448-4.8077-6.2798-5.0726 0.66216-0.66216 13.541 7.8116 13.541 8.9094 0 1.1614 0.45014 1.3992-7.2615-3.8368zm-24.988-2.4972c-2.6125-1.6239-4.75-3.3862-4.75-3.9161s2.1375 0.48106 4.75 2.2466c5.8493 3.953 5.6724 3.8073 5.1667 4.254-0.22917 0.20242-2.5542-0.96063-5.1667-2.5846zm4.25-1.5242c-3.575-2.4847-5.375-4.1729-4-3.7515 4.1719 1.2786 14.315 8.795 11.309 8.3807-0.44496-0.06133-3.734-2.1445-7.309-4.6292zm5-1.3441c-3.025-2.2112-6.1712-4.4129-6.9917-4.8927s-1.2356-1.1285-0.92262-1.4415c0.48544-0.48544 5.1351 2.5719 13.414 8.8205 1.1 0.83021 1.55 1.515 1 1.5217s-3.475-1.7969-6.5-4.008zm21.579 0.92919c-2.1564-1.137-5.0885-2.1481-6.5158-2.2469-2.8922-0.20024-12.325-6.1175-16.017-10.048-3.3605-3.5771-1.6619-3.1721 3.2856 0.78352 5.9839 4.7842 11.473 7.9062 12.636 7.1874 1.0053-0.62128 9.537 3.8697 10.591 5.5748 0.74397 1.2038 0.57386 1.1503-3.9792-1.2504zm-22.792-6.7389c-2.042-1.433-3.7295-2.9588-3.75-3.3907-0.04349-0.91506 2.4186 0.40475 5.9477 3.1883 3.7957 2.9938 2.0137 3.1579-2.1977 0.20235zm4.2127-7.1055c-3.025-2.715-5.1006-4.9507-4.6123-4.9682 1.1361-0.04074 11.502 8.2218 11.565 9.2182 0.09975 1.5812-1.6418 0.51665-6.9527-4.25z"/>
</svg>
